<?xml version="1.0" encoding="UTF-8" standalone="no"?>
<svg
   xmlns:dc="http://purl.org/dc/elements/1.1/"
   xmlns:cc="http://creativecommons.org/ns#"
   xmlns:rdf="http://www.w3.org/1999/02/22-rdf-syntax-ns#"
   xmlns:svg="http://www.w3.org/2000/svg"
   xmlns="http://www.w3.org/2000/svg"
   xmlns:sodipodi="http://sodipodi.sourceforge.net/DTD/sodipodi-0.dtd"
   xmlns:inkscape="http://www.inkscape.org/namespaces/inkscape"
   width="210mm"
   height="297mm"
   viewBox="0 0 210 297"
   version="1.1"
   id="svg8"
   inkscape:version="1.0.2 (e86c870879, 2021-01-15)"
   sodipodi:docname="and.svg">
  <defs
     id="defs2" />
  <sodipodi:namedview
     id="base"
     pagecolor="#ffffff"
     bordercolor="#666666"
     borderopacity="1.0"
     inkscape:pageopacity="0.0"
     inkscape:pageshadow="2"
     inkscape:zoom="1.979899"
     inkscape:cx="240.0487"
     inkscape:cy="108.42486"
     inkscape:document-units="mm"
     inkscape:current-layer="layer1-6"
     inkscape:document-rotation="0"
     showgrid="false"
     inkscape:window-width="1360"
     inkscape:window-height="724"
     inkscape:window-x="-4"
     inkscape:window-y="-4"
     inkscape:window-maximized="1" />
  <metadata
     id="metadata5">
    <rdf:RDF>
      <cc:Work
         rdf:about="">
        <dc:format>image/svg+xml</dc:format>
        <dc:type
           rdf:resource="http://purl.org/dc/dcmitype/StillImage" />
        <dc:title></dc:title>
      </cc:Work>
    </rdf:RDF>
  </metadata>
  <g
     inkscape:label="Layer 1"
     inkscape:groupmode="layer"
     id="layer1">
    <g
       id="layer1-6"
       stroke="#000000"
       fill="none"
       transform="matrix(1.1998761,0,0,1.4460451,3.8197417,-23.777443)">
      <path
         id="path16055"
         stroke-width="2.2097"
         transform="matrix(0.45255,0,0,0.45255,63.56,188.16)"
         stroke-linecap="square"
         d="m 78.312,44.059 a 4.4195,4.4195 0 1 1 -8.839,0 4.4195,4.4195 0 1 1 8.839,0 z"
         style="display:none" />
      <path
         id="path2183"
         stroke-width="1px"
         d="m 119,208.09 h 9"
         style="display:none" />
      <path
         id="path10208"
         stroke-linecap="square"
         d="M 114,44.094 H 95 V 18.096 l 19,-0.002 c 7.18,0 13,5.824 13,13 0,7.176 -5.82,13 -13,13 z m 17,-13 c 0,1.104 -0.9,2 -2,2 -1.1,0 -2,-0.896 -2,-2 0,-1.104 0.9,-2 2,-2 1.1,0 2,0.896 2,2 z m 0,0 h 9 m -54,-6.5 h 9 m -9,13 h 9"
         style="display:none" />
      <path
         id="path10206"
         stroke-linecap="square"
         d="m 95,77.094 v 0.063 c 2.199,3.815 3.469,8.221 3.469,12.937 0,4.717 -1.27,9.123 -3.469,12.936 v 0.06 h 13.47 c 9.61,0 18,-5.235 22.5,-12.996 -4.5,-7.76 -12.89,-13 -22.5,-13 z m 40,13.001 c 0,1.104 -0.9,2 -2,2 -1.1,0 -2,-0.896 -2,-2 0,-1.104 0.9,-2 2,-2 1.1,0 2,0.896 2,2 z m 0,-0.001 h 9 m -55.5,-6.5 h 9 m -9,13 h 9"
         style="display:none" />
      <path
         id="path10210"
         stroke-linecap="square"
         d="m 100,136.09 v 0.07 c 2.2,3.81 3.47,8.22 3.47,12.93 0,4.72 -1.27,9.13 -3.47,12.94 v 0.06 h 13.47 c 9.61,0 18,-5.23 22.5,-13 -4.5,-7.76 -12.89,-13 -22.5,-13 z m -5,0.07 c 2.199,3.81 3.469,8.22 3.469,12.93 0,4.72 -1.27,9.13 -3.469,12.94 m 45,-12.93 c 0,1.1 -0.9,2 -2,2 -1.1,0 -2,-0.9 -2,-2 0,-1.11 0.9,-2 2,-2 1.1,0 2,0.89 2,2 z m 0,-0.01 h 9 m -60.5,-6.5 h 9 m -9,13 h 9"
         style="display:none" />
      <path
         id="path10179"
         stroke-linecap="square"
         d="m 30,136.09 v 0.07 c 2.199,3.81 3.469,8.22 3.469,12.93 0,4.72 -1.27,9.13 -3.469,12.94 v 0.06 h 13.469 c 9.61,0 18,-5.23 22.5,-13 -4.5,-7.76 -12.89,-13 -22.5,-13 z m -5,0.07 c 2.199,3.81 3.469,8.22 3.469,12.93 0,4.72 -1.27,9.13 -3.469,12.94 m 41,-12.94 h 9 m -56.5,-6.5 h 9 m -9,13 h 9"
         style="display:none" />
      <path
         id="rect9115"
         stroke-linecap="square"
         d="m 25,77.095 v 0.062 c 2.199,3.815 3.469,8.221 3.469,12.938 0,4.716 -1.27,9.122 -3.469,12.935 v 0.06 h 13.469 c 9.61,0 18,-5.235 22.5,-12.995 -4.5,-7.761 -12.89,-13 -22.5,-13 z m 36,13 h 9 m -51.5,-6.5 h 9 m -9,13 h 9"
         style="display:none" />
      <path
         id="path12162"
         stroke-linecap="square"
         d="m 48.5,208.09 c 0,1.11 -0.896,2 -2,2 -1.104,0 -2,-0.89 -2,-2 0,-1.1 0.896,-2 2,-2 1.104,0 2,0.9 2,2 z m -23.5,11 v -22 l 18.986,11 z m 23.5,-11 h 9 m -41.5,0 h 9"
         style="display:none" />
      <path
         id="path6087"
         stroke-linecap="square"
         d="m 49.245545,46.825266 h -19 v -25.998 l 19,-0.002 c 7.176,0 13,5.824 13,13 0,7.176 -5.824,13 -13,13 z m 13,-13 h 9.056 m -50.056,-6.5 h 9 m -9,13 h 9"
         style="display:inline" />
    </g>
  </g>
</svg>
